<svg xmlns="http://www.w3.org/2000/svg" viewBox="0 0 382.5 397.47"><defs><style>.cls-1{fill:#c9a063;}.cls-1,.cls-2,.cls-3,.cls-5{stroke:#231815;}.cls-1,.cls-2,.cls-3,.cls-4,.cls-5{stroke-miterlimit:10;}.cls-2{fill:#7f4f21;}.cls-3{fill:#fff;}.cls-4{fill:#231815;stroke:#fff;}.cls-5{fill:#6a3906;}</style></defs><title>doll1</title><g id="圖層_2" data-name="圖層 2"><g id="圖層_1-2" data-name="圖層 1"><ellipse class="cls-1" cx="192.92" cy="207.84" rx="169.42" ry="189.13"/><path class="cls-2" d="M247.13,89.74c0,20-24.27,36.23-54.21,36.23s-54.21-16.22-54.21-36.23S163,53.51,192.92,53.51,247.13,69.73,247.13,89.74Z"/><path class="cls-3" d="M166.25,79.59s32,74.78,57.56,0"/><path class="cls-4" d="M209.52,64.75C209.52,71,203,76,195,76s-14.49-5-14.49-11.24S187,53.51,195,53.51,209.52,58.54,209.52,64.75Z"/><path class="cls-4" d="M169.87,39.35a3.62,3.62,0,1,1-3.62-3.63A3.62,3.62,0,0,1,169.87,39.35Z"/><path class="cls-4" d="M227.43,39.35a3.62,3.62,0,1,1-3.62-3.63A3.62,3.62,0,0,1,227.43,39.35Z"/><path class="cls-5" d="M72.47,77S18.62,41.17,4.13,77c0,0-20.07,30.81,34.17,50C38.3,127,66.89,70.15,72.47,77Z"/><line class="cls-3" x1="14.72" y1="60.07" x2="35.48" y2="75.99"/><line class="cls-3" x1="3.13" y1="75.99" x2="25.1" y2="89.74"/><line class="cls-3" x1="3.13" y1="102.58" x2="23.5" y2="102.58"/><path class="cls-5" d="M109.86,43S78.49,26.31,101.68,6c0,0,30.93-21.85,37,22.57C138.71,28.59,119,36.81,109.86,43Z"/><path class="cls-2" d="M247.13,28.59S243.71-1.83,265.45.64c0,0,42.24,7.18,10.53,42.33Z"/><path class="cls-2" d="M314.37,76s39.49-38.68,58.33-15.92c0,0,34.43,28.4-29.17,61.08Z"/><line class="cls-3" x1="351.63" y1="53.51" x2="339.36" y2="75.99"/><line class="cls-3" x1="372.7" y1="60.07" x2="351.63" y2="87.03"/><line class="cls-3" x1="382" y1="89.74" x2="351.63" y2="96.21"/><path class="cls-2" d="M86.87,355.32s-90.83,0-63.37,33.3c0,0,108.14,16,85.19-16.65Z"/><path class="cls-2" d="M299,355.32s106.9,1.42,67.85,27.51c0,0-82.79,24.23-92.8-8.9Z"/><ellipse class="cls-3" cx="195.03" cy="253.86" rx="135.64" ry="120.07"/></g></g></svg>