<?xml version="1.0" encoding="UTF-8"?>
<svg viewBox="0 0 547 277" xmlns="http://www.w3.org/2000/svg">
 <g transform="translate(2.7001 -3.9762) matrix(2.236 0 0 2.236 -507.81 -1927.2)" fill-rule="evenodd">
  <g stroke="#000" stroke-linecap="round" stroke-linejoin="round" stroke-miterlimit="2.6131" stroke-width="3.5433">
   <path d="m302.86 925.89h6.011c0.412 5.487 2.565 9.363 5.511 12.506-1.169 0.463-2.338 0.926-3.507 1.39-4.149-3.095-7.244-7.288-8.015-13.896z" fill="#ccc"/>
   <path d="m331.61 935.26c-0.445 17.474-33.586 16.543-37.87 7.125-2.556-5.619-3.915-13.176-1.577-19.149h44.896c-6.149 3.526-5.114 3.932-5.449 12.024zm-33.019-2.876c4.418-7.213 25.163-8.626 27.774 0.164 3.913 13.173-22.755 13.94-26.497 8.881-2.458-3.324-2.23-7.489-1.277-9.045z" fill="#ccc"/>
   <path d="m272.83 875.94c7.633 0.075 7.472 10.51 3.543 16.502l2.636 4.305c3.558-2.154 14.358-11.129 15.744-15.34-1.364-6.031-5.593 0.993-15.805-8.39-3.544-3.256-6.391-1.131-6.118 2.923z" fill="#b3b3b3"/>
   <path d="m470.55 863.67h-3.089c-4.265 8.551-13.944 2.863-13.944 6.358v6.358h17.032v-12.716h1e-3z" fill="#b3b3b3"/>
  </g>
  <g fill="#ccc" stroke="#000" stroke-linecap="round" stroke-linejoin="round" stroke-miterlimit="2.6131" stroke-width="3.5433">
   <path d="m295.69 869.06h51.462l2.577 0.937v41.912c-0.015 6.2-0.665 11.859-4.092 11.751h-81.821v-23.235c9e-3 -3.256 0.61-4.894 5.469-4.917 14.538-1.111 28.694-22.194 26.406-26.448h-1e-3z"/>
   <path d="m349.4 873.02h121.15v17.322h-121.15v-17.322z"/>
   <path d="m349.4 889.83h120.14v15.454h-120.14v-15.454z"/>
  </g>
  <path d="m351.43 876.35h109.72v5.3298h-109.72v-5.3298z" fill="#fff"/>
  <path d="m351.41 892.8h108.8v4.7555h-108.8v-4.7555z" fill="#fff"/>
  <path d="m349.4 873.76h-12.641v39.441h12.641v-39.441z" fill="#ccc" stroke="#000" stroke-linecap="round" stroke-linejoin="round" stroke-miterlimit="2.6131" stroke-width="3.5433"/>
  <path d="m338.57 896.66h9.0188v4.7729h-9.0188v-4.7729z" fill="#fff"/>
  <path d="m338.57 878.41h9.0188v4.7729h-9.0188v-4.7729z" fill="#fff"/>
  <g stroke="#000" stroke-linecap="round" stroke-linejoin="round" stroke-miterlimit="2.6131" stroke-width="3.5433">
   <path d="m342.33 873.76h-34.734v39.441h34.734v-39.441z" fill="#b3b3b3"/>
   <path d="m300.89 873.76h6.6989v39.441h-6.6989v-39.441z" fill="#808080"/>
   <path d="m342.33 885.12h-34.734v16.712h34.734v-16.712z" fill="#b3b3b3"/>
  </g>
  <g fill="#fff">
   <path d="m312.37 877.27h25.704v4.7725h-25.704v-4.7725z"/>
   <path d="m266.76 899.4c10.256-0.4494 19.754-10.348 31.319-21.26v4.3739c-8.4781 9.8288-18.918 19.277-31.319 21.26v-4.3739"/>
   <path d="m312.37 888.64h25.704v4.7727h-25.704v-4.7727z"/>
  </g>
  <path d="m279.63 911.94c1.8471 0 3.3445 1.4978 3.3445 3.3445 0 1.8472-1.4974 3.3445-3.3445 3.3445-1.8468 0-3.3445-1.4973-3.3445-3.3445 0-1.8467 1.4978-3.3445 3.3445-3.3445z" fill="#b3b3b3" stroke="#000" stroke-linecap="round" stroke-linejoin="round" stroke-miterlimit="2.6131" stroke-width="3.5433"/>
  <path d="m229.15 977.41c-3.252-14.001 25.079-40.909 26.149-70.819 6.266-0.314 10.731-0.08 11.031 1.475 1.651 8.555 4.359 15.751 15.894 15.163 5.208-0.265 10.67 0.28 11.213 2.565 1.792 7.551-0.883 10.555-3.897 10.885-4.479 0.49-8.639 3.533-8.903 9.776-0.076 1.806-0.167 5.648-0.021 7.582 0.386 5.089-3.143 3.545-1.098 10.878 1.084 1.997 4.249 4.58 4.803 6.393 1.122 3.668-2.379 3.426 0.424 9.049-12.442 3.151-42.06 7.317-55.594-2.947h-1e-3z" fill="#4c4c4c" stroke="#000" stroke-linecap="round" stroke-linejoin="round" stroke-miterlimit="2.6131" stroke-width="3.5433"/>
  <path d="m289.76 925.88c-19.304 1.4293-25.899-3.5143-29.863-17.716v4.3737c-0.0273 13.809 9.7491 18.282 29.863 17.717v-4.3738" fill="#808080"/>
 </g>
</svg>
