<svg xmlns="http://www.w3.org/2000/svg" viewBox="0 0 207.23 729.14"><defs><style>.cls-1{fill:#59c3e1;}.cls-2{fill:none;stroke:#fff;stroke-miterlimit:10;}.cls-3{fill:#f1ec53;}</style></defs><title>picker</title><g><path class="cls-1" d="M192.44,660l-.14-.15L142,614a2,2,0,0,1-.37-2.45l1.2-2a42.79,42.79,0,0,1-.38-5.77,4.12,4.12,0,0,1,.14-1.11,5,5,0,0,1-1.14-2H119.83a2,2,0,0,1-2-2l4.5-10.53a2,2,0,0,0-2-2H90.68a2,2,0,0,0-2,2v10.62a2,2,0,0,1-2,2H64.36a19.06,19.06,0,0,1-1.22,2.78A4.71,4.71,0,0,1,61.71,605l1.69,6.78a2,2,0,0,1-.6,2l-51,45.55a1.39,1.39,0,0,0-.26.28c-2.22,2.94-34.65,47.55,23.61,68.78,0,0-9.71-36.77-4.6-41.36l41.66-31.37a2,2,0,0,1,2.87.56l2.9,4.84a2,2,0,0,0,1.67,1l46.18.48a2,2,0,0,0,1.78-1.08l2-4.09a2,2,0,0,1,2.83-.77l44.71,28.84a2,2,0,0,1,.9,1.72c-.19,5.2-1.25,27.32-5.65,37.93a2,2,0,0,0,2.65,2.54c15.76-7.54,51.56-30,17.4-67.55"/><path class="cls-2" d="M192.44,660l-.14-.15L142,614a2,2,0,0,1-.37-2.45l1.2-2a42.79,42.79,0,0,1-.38-5.77,4.12,4.12,0,0,1,.14-1.11,5,5,0,0,1-1.14-2H119.83a2,2,0,0,1-2-2l4.5-10.53a2,2,0,0,0-2-2H90.68a2,2,0,0,0-2,2v10.62a2,2,0,0,1-2,2H64.36a19.06,19.06,0,0,1-1.22,2.78A4.71,4.71,0,0,1,61.71,605l1.69,6.78a2,2,0,0,1-.6,2l-51,45.55a1.39,1.39,0,0,0-.26.28c-2.22,2.94-34.65,47.55,23.61,68.78,0,0-9.71-36.77-4.6-41.36l41.66-31.37a2,2,0,0,1,2.87.56l2.9,4.84a2,2,0,0,0,1.67,1l46.18.48a2,2,0,0,0,1.78-1.08l2-4.09a2,2,0,0,1,2.83-.77l44.71,28.84a2,2,0,0,1,.9,1.72c-.19,5.2-1.25,27.32-5.65,37.93a2,2,0,0,0,2.65,2.54C190.8,720,226.6,697.49,192.44,660Z"/><path class="cls-3" d="M39.07,672.59a16.28,16.28,0,1,1-16.28-16.28,16.28,16.28,0,0,1,16.28,16.28"/><path class="cls-2" d="M39.07,672.59a16.28,16.28,0,1,1-16.28-16.28A16.28,16.28,0,0,1,39.07,672.59Z"/><path class="cls-3" d="M202.58,674.21a16.28,16.28,0,1,1-16.28-16.29,16.28,16.28,0,0,1,16.28,16.29"/><path class="cls-2" d="M202.58,674.21a16.28,16.28,0,1,1-16.28-16.29A16.28,16.28,0,0,1,202.58,674.21Z"/><path class="cls-3" d="M142.42,604.08a6.84,6.84,0,0,0-6.64-5.19h-6.59a6.86,6.86,0,0,1-6.85-6.86l.36-.83a6.84,6.84,0,0,0-6.85-6.86H90.78a6.85,6.85,0,0,0-6.85,6.85V592a6.85,6.85,0,0,1-6.85,6.85H69.45A6.79,6.79,0,0,0,64,601.57a16.22,16.22,0,0,1-.88,1.89c-.08.13-.18.23-.26.35a6.83,6.83,0,0,0,0,3.78l14,50.13a6.84,6.84,0,0,0,6.6,5h39.05a6.84,6.84,0,0,0,6.63-5.1l13.23-50.13a4.25,4.25,0,0,0,.12-.6c-.06-.93-.09-1.86-.1-2.81"/><path class="cls-2" d="M142.42,604.08a6.84,6.84,0,0,0-6.64-5.19h-6.59a6.86,6.86,0,0,1-6.85-6.86l.36-.83a6.84,6.84,0,0,0-6.85-6.86H90.78a6.85,6.85,0,0,0-6.85,6.85V592a6.85,6.85,0,0,1-6.85,6.85H69.45A6.79,6.79,0,0,0,64,601.57a16.22,16.22,0,0,1-.88,1.89c-.08.13-.18.23-.26.35a6.83,6.83,0,0,0,0,3.78l14,50.13a6.84,6.84,0,0,0,6.6,5h39.05a6.84,6.84,0,0,0,6.63-5.1l13.23-50.13a4.25,4.25,0,0,0,.12-.6C142.46,606,142.43,605,142.42,604.08Z"/><rect class="cls-3" x="100.42" width="4.75" height="585.75"/></g></svg>