<svg xmlns="http://www.w3.org/2000/svg" viewBox="0 0 207.23 325.3"><defs><style>.cls-1{fill:#59c3e1;}.cls-1,.cls-2{stroke:#fff;stroke-miterlimit:10;}.cls-2{fill:#f1ec53;}</style></defs><title>picker</title><g id="圖層_2" data-name="圖層 2"><g id="圖層_1-2" data-name="圖層 1"><path class="cls-1" d="M192.44,256.15l-.14-.14L142,210.17a2,2,0,0,1-.37-2.45l1.2-2.05a44.5,44.5,0,0,1-.39-5.77,4.57,4.57,0,0,1,.15-1.11,4.93,4.93,0,0,1-1.14-1.95H119.83a2,2,0,0,1-2-2L122.37,4.3a2,2,0,0,0-2-2H90.68a2,2,0,0,0-2,2V194.87a2,2,0,0,1-2,2H64.36a18.6,18.6,0,0,1-1.22,2.78,4.62,4.62,0,0,1-1.43,1.54l1.69,6.78a2,2,0,0,1-.6,1.95l-51,45.55a1.39,1.39,0,0,0-.26.28c-2.22,2.94-34.65,47.55,23.61,68.78,0,0-9.71-36.77-4.6-41.36l41.66-31.37a2,2,0,0,1,2.87.56l2.9,4.84a2,2,0,0,0,1.67,1l46.18.48a2,2,0,0,0,1.78-1.08l2-4.09a2,2,0,0,1,2.83-.77l44.71,28.84a2,2,0,0,1,.9,1.72c-.19,5.2-1.25,27.33-5.65,37.93A2,2,0,0,0,175,323.7C190.8,316.16,226.6,293.65,192.44,256.15Z"/><circle class="cls-2" cx="22.79" cy="268.75" r="16.28"/><circle class="cls-2" cx="186.3" cy="270.37" r="16.28"/><path class="cls-2" d="M142.42,200.24a6.85,6.85,0,0,0-6.64-5.19h-6.59a6.86,6.86,0,0,1-6.85-6.86L122.7,7.36A6.85,6.85,0,0,0,115.85.5H90.78a6.85,6.85,0,0,0-6.85,6.85V188.2a6.84,6.84,0,0,1-6.85,6.85H69.45A6.8,6.8,0,0,0,64,197.73a16.22,16.22,0,0,1-.88,1.89c-.08.13-.18.24-.26.36a6.79,6.79,0,0,0,0,3.77l14,50.13a6.84,6.84,0,0,0,6.6,5h39.06a6.85,6.85,0,0,0,6.62-5.1l13.23-50.13a4.25,4.25,0,0,0,.12-.6C142.46,202.12,142.43,201.19,142.42,200.24Z"/></g></g></svg>